<svg width="64" height="64" viewBox="0 0 64 64" fill="none" xmlns="http://www.w3.org/2000/svg">
<g clip-path="url(#clip0_302_727)">
<path d="M49.0634 21.3751C49.2309 21.3751 49.3916 21.3092 49.51 21.192C49.6285 21.0748 49.695 20.9158 49.695 20.7501V18.6688C49.6943 18.126 49.4761 17.6056 49.0882 17.2217C48.7004 16.8379 48.1745 16.622 47.6259 16.6213H44.2318L43.4575 14.3601C43.4049 14.2063 43.2939 14.0788 43.1479 14.0046C43.002 13.9304 42.8326 13.9153 42.6756 13.9626L24.2929 19.4926C24.1407 19.5475 24.0157 19.6581 23.9434 19.8015C23.8712 19.945 23.8572 20.1104 23.9045 20.2636C23.9518 20.4169 24.0566 20.5465 24.1975 20.6256C24.3384 20.7047 24.5045 20.7273 24.6617 20.6888L42.4584 15.3338L44.1548 20.2901C44.2086 20.447 44.3231 20.5764 44.4733 20.6498C44.6235 20.7232 44.797 20.7345 44.9556 20.6813C45.1143 20.6281 45.245 20.5147 45.3192 20.3661C45.3933 20.2175 45.4048 20.0458 45.351 19.8888L44.6601 17.8701H47.6272C48.0718 17.8701 48.4331 18.2276 48.4331 18.6676V20.7501C48.4318 21.0951 48.7148 21.3751 49.0634 21.3751Z" fill="#0166B3"/>
<path d="M54.1053 30.7496C53.9378 30.7496 53.7771 30.8155 53.6587 30.9327C53.5402 31.0499 53.4737 31.2089 53.4737 31.3746C53.4737 31.5404 53.5402 31.6994 53.6587 31.8166C53.7771 31.9338 53.9378 31.9996 54.1053 31.9996C54.5486 31.9996 54.7368 32.1859 54.7368 32.6246V40.1246C54.7368 40.5634 54.5486 40.7496 54.1053 40.7496H44C43.5566 40.7496 43.3684 40.5634 43.3684 40.1246V33.8746C43.3684 33.4359 43.5566 33.2496 44 33.2496H51.5789C51.7465 33.2496 51.9071 33.1838 52.0255 33.0666C52.144 32.9494 52.2105 32.7904 52.2105 32.6246V25.1246C52.2105 23.9859 51.4665 23.2496 50.3158 23.2496H11.7895C10.232 23.2496 9.26316 22.2909 9.26316 20.7496C9.26316 19.2084 10.232 18.2496 11.7895 18.2496H18.2013L14.3789 19.4971C14.2973 19.5204 14.2213 19.5598 14.1554 19.6128C14.0895 19.6659 14.0351 19.7315 13.9954 19.8059C13.9558 19.8802 13.9317 19.9617 13.9246 20.0455C13.9175 20.1293 13.9275 20.2136 13.9542 20.2934C13.9808 20.3733 14.0234 20.447 14.0794 20.5101C14.1355 20.5733 14.2039 20.6246 14.2804 20.661C14.357 20.6974 14.4402 20.7182 14.5251 20.722C14.6099 20.7259 14.6947 20.7127 14.7743 20.6834L37.6615 13.2171C37.7403 13.1914 37.8132 13.1505 37.876 13.0968C37.9388 13.0432 37.9904 12.9778 38.0277 12.9045C38.0649 12.8311 38.0873 12.7512 38.0934 12.6693C38.0995 12.5874 38.0892 12.5051 38.0632 12.4271C38.0371 12.3492 37.9958 12.277 37.9416 12.2149C37.8874 12.1527 37.8213 12.1017 37.7472 12.0648C37.6731 12.0279 37.5923 12.0058 37.5095 11.9997C37.4268 11.9937 37.3436 12.0039 37.2648 12.0296L21.9806 17.0171C21.9516 17.0121 21.9251 16.9996 21.8947 16.9996H11.7895C9.52337 16.9996 8 18.5071 8 20.7496V48.2496C8 50.4921 9.52337 51.9996 11.7895 51.9996H50.3158C51.4665 51.9996 52.2105 51.2634 52.2105 50.1246V43.8746C52.2105 43.7089 52.144 43.5499 52.0255 43.4327C51.9071 43.3155 51.7465 43.2496 51.5789 43.2496C51.4114 43.2496 51.2508 43.3155 51.1324 43.4327C51.0139 43.5499 50.9474 43.7089 50.9474 43.8746V50.1246C50.9474 50.5634 50.7592 50.7496 50.3158 50.7496H11.7895C10.232 50.7496 9.26316 49.7909 9.26316 48.2496V23.6396C9.91116 24.1809 10.7688 24.4996 11.7895 24.4996H50.3158C50.7592 24.4996 50.9474 24.6859 50.9474 25.1246V31.9996H44C42.8493 31.9996 42.1053 32.7359 42.1053 33.8746V40.1246C42.1053 41.2634 42.8493 41.9996 44 41.9996H54.1053C55.256 41.9996 56 41.2634 56 40.1246V32.6246C56 31.4859 55.256 30.7496 54.1053 30.7496Z" fill="#0166B3" stroke="#0166B3" stroke-width="0.5"/>
<path d="M48.4214 38.25C49.119 38.25 49.6845 37.6904 49.6845 37C49.6845 36.3096 49.119 35.75 48.4214 35.75C47.7237 35.75 47.1582 36.3096 47.1582 37C47.1582 37.6904 47.7237 38.25 48.4214 38.25Z" fill="#0166B3"/>
</g>
<defs>
<clipPath id="clip0_302_727">
<rect width="48" height="40" fill="white" transform="translate(8 12)"/>
</clipPath>
</defs>
</svg>
