<svg width="64" height="64" viewBox="0 0 64 64" fill="none" xmlns="http://www.w3.org/2000/svg">
<path d="M46.322 49.5657L44.5753 47.8163C44.3442 47.587 44.0714 47.4723 43.7567 47.4723C43.4402 47.4723 43.1673 47.587 42.938 47.8163C42.7087 48.0439 42.594 48.3132 42.594 48.6243C42.594 48.9354 42.7087 49.2057 42.938 49.435L45.2313 51.7283C45.562 52.0608 45.9345 52.227 46.3487 52.227C46.7629 52.227 47.1353 52.0608 47.466 51.7283L53.0607 46.2163C53.29 45.987 53.4136 45.723 53.4314 45.4243C53.4491 45.1239 53.3256 44.8421 53.0607 44.579C52.8314 44.3497 52.5505 44.235 52.218 44.235C51.8856 44.235 51.6038 44.3505 51.3727 44.5817L46.322 49.5657ZM19.386 23.2803H44.618C44.9967 23.2803 45.3131 23.1532 45.5673 22.899C45.8216 22.6448 45.9496 22.3274 45.9514 21.947C45.9514 21.5328 45.8233 21.2074 45.5673 20.971C45.3131 20.7328 44.9967 20.6137 44.618 20.6137H19.3833C19.0047 20.6137 18.6873 20.7408 18.4313 20.995C18.1753 21.2492 18.0482 21.5665 18.05 21.947C18.0518 22.3274 18.1789 22.6448 18.4313 22.899C18.6838 23.1532 19.0038 23.2803 19.386 23.2803ZM47.9994 58.9763C45.0287 58.9763 42.5087 57.9408 40.4394 55.8697C38.3682 53.8003 37.3327 51.2803 37.3327 48.3097C37.3327 45.339 38.3682 42.8181 40.4394 40.747C42.5105 38.6759 45.0305 37.6412 47.9994 37.643C50.9682 37.6448 53.4891 38.6794 55.562 40.747C57.6349 42.8145 58.6696 45.3354 58.666 48.3097C58.666 51.2785 57.6314 53.7985 55.562 55.8697C53.4891 57.9408 50.9682 58.9763 47.9994 58.9763ZM10.666 14.9763C10.666 13.7817 11.0856 12.7648 11.9247 11.9257C12.7638 11.0865 13.7807 10.667 14.9753 10.667H49.026C50.2171 10.667 51.2331 11.0865 52.074 11.9257C52.9131 12.7648 53.3327 13.7817 53.3327 14.9763V29.155C53.3327 29.5337 53.2056 29.851 52.9514 30.107C52.6971 30.363 52.3798 30.4901 51.9994 30.4883C51.6189 30.4865 51.3016 30.3594 51.0473 30.107C50.7931 29.8545 50.666 29.5372 50.666 29.155V14.9763C50.666 14.5657 50.4953 14.1888 50.154 13.8457C49.8127 13.5025 49.4358 13.3319 49.0234 13.3337H14.9753C14.5647 13.3337 14.1878 13.5043 13.8447 13.8457C13.5016 14.187 13.3309 14.5639 13.3327 14.9763V50.8003H30.25C30.3051 51.1594 30.37 51.5185 30.4447 51.8777C30.5211 52.2368 30.6189 52.5905 30.738 52.939C30.8571 53.2572 30.7771 53.5177 30.498 53.7203C30.2171 53.9248 29.9505 53.9337 29.698 53.747L29.034 53.2937C28.8367 53.1639 28.6287 53.099 28.41 53.099C28.1914 53.099 27.9825 53.1639 27.7833 53.2937L25.4447 54.9123C25.2473 55.0439 25.0393 55.1097 24.8207 55.1097C24.602 55.1097 24.3931 55.0439 24.194 54.9123L21.8553 53.2937C21.6562 53.1639 21.4473 53.099 21.2287 53.099C21.01 53.099 20.802 53.1639 20.6047 53.2937L18.266 54.9123C18.0687 55.0439 17.8607 55.1097 17.642 55.1097C17.4233 55.1097 17.2145 55.0439 17.0153 54.9123L14.6767 53.2937C14.4776 53.1639 14.2687 53.099 14.05 53.099C13.8313 53.099 13.6233 53.1639 13.426 53.2937L10.666 55.435V14.9763ZM19.386 43.3843H29.7167C30.0971 43.3843 30.4145 43.2572 30.6687 43.003C30.9229 42.7488 31.05 42.4314 31.05 42.051C31.05 41.6705 30.9229 41.3541 30.6687 41.1017C30.4145 40.8492 30.0971 40.7212 29.7167 40.7177H19.386C19.0073 40.7177 18.69 40.8457 18.434 41.1017C18.178 41.3577 18.0509 41.6741 18.0527 42.051C18.0545 42.4279 18.1816 42.7452 18.434 43.003C18.6865 43.2608 19.0038 43.3879 19.386 43.3843ZM19.386 33.3337H38.5967C38.9753 33.3337 39.2927 33.2065 39.5487 32.9523C39.8047 32.6981 39.9318 32.3808 39.93 32.0003C39.9282 31.6199 39.8011 31.3025 39.5487 31.0483C39.2962 30.7941 38.9789 30.667 38.5967 30.667H19.3833C19.0047 30.667 18.6873 30.7941 18.4313 31.0483C18.1753 31.3025 18.0491 31.6199 18.0527 32.0003C18.0562 32.3808 18.1833 32.6981 18.434 32.9523C18.6847 33.2065 19.002 33.3337 19.386 33.3337Z" fill="#0166B3"/>
</svg>
