<svg width="64" height="57" viewBox="0 0 64 57" fill="none" xmlns="http://www.w3.org/2000/svg">
<path d="M55.9375 46.1572C57.9792 47.1572 59.6667 48.5635 61 50.376C62.3333 52.1885 63.1771 54.2301 63.5312 56.501H60.0938C59.8646 55.3135 59.4375 54.2093 58.8125 53.1885C58.1875 52.1676 57.4271 51.2926 56.5312 50.5635C55.6354 49.8343 54.625 49.251 53.5 48.8135C52.375 48.376 51.2083 48.1676 50 48.1885C48.7708 48.1885 47.6042 48.3968 46.5 48.8135C45.3958 49.2301 44.3854 49.8031 43.4688 50.5322C42.5521 51.2614 41.7917 52.1468 41.1875 53.1885C40.5833 54.2301 40.1562 55.3343 39.9062 56.501H36.4688C36.8021 54.251 37.6354 52.2197 38.9688 50.4072C40.3021 48.5947 42 47.1781 44.0625 46.1572C42.875 45.2197 41.9583 44.0843 41.3125 42.751C40.6667 41.4176 40.3333 40.001 40.3125 38.501C40.3125 37.5635 40.4375 36.6572 40.6875 35.7822C40.9375 34.9072 41.3125 34.0843 41.8125 33.3135C42.3125 32.5426 42.9062 31.8551 43.5938 31.251C44.2812 30.6468 45.0521 30.1364 45.9062 29.7197C45.3438 28.9072 44.6979 28.1885 43.9688 27.5635C43.2396 26.9385 42.4479 26.3864 41.5938 25.9072C40.7396 25.4281 39.8438 25.0843 38.9062 24.876C37.9688 24.6676 37 24.5426 36 24.501C34.3333 24.501 32.7396 24.8239 31.2188 25.4697C29.6979 26.1156 28.375 27.0635 27.25 28.3135C27.75 29.6676 28 31.0635 28 32.501C28 34.4176 27.5729 36.2197 26.7188 37.9072C25.8646 39.5947 24.6667 41.0114 23.125 42.1572C24.4792 42.8447 25.6979 43.6885 26.7812 44.6885C27.8646 45.6885 28.8021 46.8135 29.5938 48.0635C30.3854 49.3135 30.9792 50.6468 31.375 52.0635C31.7708 53.4801 31.9792 54.9593 32 56.501H28C28 54.8551 27.6875 53.3031 27.0625 51.8447C26.4375 50.3864 25.5833 49.1156 24.5 48.0322C23.4167 46.9489 22.1354 46.0843 20.6562 45.4385C19.1771 44.7926 17.625 44.4801 16 44.501C14.3333 44.501 12.7812 44.8135 11.3438 45.4385C9.90625 46.0635 8.63542 46.9176 7.53125 48.001C6.42708 49.0843 5.5625 50.3656 4.9375 51.8447C4.3125 53.3239 4 54.876 4 56.501H0C0 54.9801 0.208333 53.5114 0.625 52.0947C1.04167 50.6781 1.63542 49.3447 2.40625 48.0947C3.17708 46.8447 4.10417 45.7197 5.1875 44.7197C6.27083 43.7197 7.5 42.8656 8.875 42.1572C7.33333 41.0114 6.13542 39.5947 5.28125 37.9072C4.42708 36.2197 4 34.4176 4 32.501C4 30.8551 4.3125 29.3031 4.9375 27.8447C5.5625 26.3864 6.41667 25.1156 7.5 24.0322C8.58333 22.9489 9.85417 22.0843 11.3125 21.4385C12.7708 20.7926 14.3333 20.4801 16 20.501C17.7708 20.501 19.4479 20.876 21.0312 21.626C22.6146 22.376 23.9896 23.4176 25.1562 24.751C25.6979 24.2301 26.2812 23.7614 26.9062 23.3447C27.5312 22.9281 28.1875 22.5322 28.875 22.1572C27.3333 21.0114 26.1354 19.5947 25.2812 17.9072C24.4271 16.2197 24 14.4176 24 12.501C24 10.8551 24.3125 9.30306 24.9375 7.84473C25.5625 6.38639 26.4167 5.11556 27.5 4.03223C28.5833 2.94889 29.8542 2.08431 31.3125 1.43848C32.7708 0.792643 34.3333 0.480143 36 0.500977C37.6458 0.500977 39.1979 0.813477 40.6562 1.43848C42.1146 2.06348 43.3854 2.91764 44.4688 4.00098C45.5521 5.08431 46.4167 6.36556 47.0625 7.84473C47.7083 9.32389 48.0208 10.876 48 12.501C48 14.4176 47.5729 16.2197 46.7188 17.9072C45.8646 19.5947 44.6667 21.0114 43.125 22.1572C44.5833 22.9281 45.8958 23.8656 47.0625 24.9697C48.2292 26.0739 49.2188 27.3551 50.0312 28.8135C51.3646 28.8135 52.6146 29.0635 53.7812 29.5635C54.9479 30.0635 55.9792 30.7614 56.875 31.6572C57.7708 32.5531 58.4583 33.5739 58.9375 34.7197C59.4167 35.8656 59.6667 37.126 59.6875 38.501C59.6875 40.001 59.3646 41.4176 58.7188 42.751C58.0729 44.0843 57.1458 45.2197 55.9375 46.1572ZM16 40.501C17.1042 40.501 18.1354 40.2926 19.0938 39.876C20.0521 39.4593 20.9062 38.8864 21.6562 38.1572C22.4062 37.4281 22.9792 36.5843 23.375 35.626C23.7708 34.6676 23.9792 33.626 24 32.501C24 31.3968 23.7917 30.3656 23.375 29.4072C22.9583 28.4489 22.3854 27.5947 21.6562 26.8447C20.9271 26.0947 20.0833 25.5218 19.125 25.126C18.1667 24.7301 17.125 24.5218 16 24.501C14.8958 24.501 13.8646 24.7093 12.9062 25.126C11.9479 25.5426 11.0938 26.1156 10.3438 26.8447C9.59375 27.5739 9.02083 28.4176 8.625 29.376C8.22917 30.3343 8.02083 31.376 8 32.501C8 33.6051 8.20833 34.6364 8.625 35.5947C9.04167 36.5531 9.61458 37.4072 10.3438 38.1572C11.0729 38.9072 11.9167 39.4801 12.875 39.876C13.8333 40.2718 14.875 40.4801 16 40.501ZM28 12.501C28 13.6051 28.2083 14.6364 28.625 15.5947C29.0417 16.5531 29.6146 17.4072 30.3438 18.1572C31.0729 18.9072 31.9167 19.4801 32.875 19.876C33.8333 20.2718 34.875 20.4801 36 20.501C37.1042 20.501 38.1354 20.2926 39.0938 19.876C40.0521 19.4593 40.9062 18.8864 41.6562 18.1572C42.4062 17.4281 42.9792 16.5843 43.375 15.626C43.7708 14.6676 43.9792 13.626 44 12.501C44 11.3968 43.7917 10.3656 43.375 9.40723C42.9583 8.44889 42.3854 7.59473 41.6562 6.84473C40.9271 6.09473 40.0833 5.52181 39.125 5.12598C38.1667 4.73014 37.125 4.52181 36 4.50098C34.8958 4.50098 33.8646 4.70931 32.9062 5.12598C31.9479 5.54264 31.0938 6.11556 30.3438 6.84473C29.5938 7.57389 29.0208 8.41764 28.625 9.37598C28.2292 10.3343 28.0208 11.376 28 12.501ZM50 32.1885C49.125 32.1885 48.3125 32.3551 47.5625 32.6885C46.8125 33.0218 46.1458 33.4697 45.5625 34.0322C44.9792 34.5947 44.5208 35.2614 44.1875 36.0322C43.8542 36.8031 43.6875 37.626 43.6875 38.501C43.6875 39.376 43.8542 40.1885 44.1875 40.9385C44.5208 41.6885 44.9688 42.3551 45.5312 42.9385C46.0938 43.5218 46.7604 43.9801 47.5312 44.3135C48.3021 44.6468 49.125 44.8135 50 44.8135C50.875 44.8135 51.6875 44.6468 52.4375 44.3135C53.1875 43.9801 53.8542 43.5322 54.4375 42.9697C55.0208 42.4072 55.4792 41.7406 55.8125 40.9697C56.1458 40.1989 56.3125 39.376 56.3125 38.501C56.3125 37.626 56.1458 36.8135 55.8125 36.0635C55.4792 35.3135 55.0312 34.6468 54.4688 34.0635C53.9062 33.4801 53.2396 33.0218 52.4688 32.6885C51.6979 32.3551 50.875 32.1885 50 32.1885Z" fill="#0166B3" stroke="white"/>
</svg>
