<svg width="64" height="64" viewBox="0 0 64 64" fill="none" xmlns="http://www.w3.org/2000/svg">
<g clip-path="url(#clip0_201_1625)">
<path d="M1.06667 40.533H5.33333V62.933C5.33333 63.5216 5.8099 63.9997 6.4 63.9997H12.8C13.3901 63.9997 13.8667 63.5216 13.8667 62.933V52.3721L16.0214 63.1419C16.1203 63.6413 16.5578 63.9997 17.0667 63.9997H23.4667C23.7812 63.9997 24.0802 63.8611 24.2839 63.62C24.4854 63.3788 24.5729 63.0611 24.5182 62.7507L20.2667 38.308V25.5997H28.8C29.1073 25.5997 29.3995 25.4663 29.6031 25.2361L37.0698 16.7028C37.4401 16.2804 37.4177 15.6424 37.0208 15.2455L33.8208 12.0455C33.4036 11.6283 32.7297 11.6283 32.3125 12.0455L26.225 18.133H18.0161C19.4026 16.7762 20.2667 14.8882 20.2667 12.7997C20.2667 8.68249 16.9161 5.33301 12.8 5.33301C8.68385 5.33301 5.33333 8.68249 5.33333 12.7997C5.33333 14.8882 6.1974 16.7762 7.5849 18.133H7.46667C3.35052 18.133 0 21.4825 0 25.5997V39.4663C0 40.0549 0.476563 40.533 1.06667 40.533ZM7.46667 12.7997C7.46667 9.85905 9.85937 7.46634 12.8 7.46634C15.7406 7.46634 18.1333 9.85905 18.1333 12.7997C18.1333 15.7403 15.7406 18.133 12.8 18.133C9.85937 18.133 7.46667 15.7403 7.46667 12.7997ZM2.13333 25.5997C2.13333 22.659 4.52604 20.2663 7.46667 20.2663H26.6667C26.9505 20.2663 27.2214 20.1544 27.4208 19.9538L33.0667 14.308L34.8073 16.0476L28.3156 23.4663H19.2C18.6099 23.4663 18.1333 23.9445 18.1333 24.533V38.3997C18.1333 38.4617 18.1385 38.5226 18.1495 38.582L22.1995 61.8663H17.9411L13.8453 41.3908C13.7375 40.8528 13.2307 40.4799 12.6943 40.5382C12.1495 40.5929 11.7333 41.0512 11.7333 41.5997V61.8663H7.46667V25.5997H5.33333V38.3997H2.13333V25.5997Z" fill="#0166B3"/>
<path d="M61.8667 29.8665C61.8667 29.2779 61.3901 28.7998 60.8 28.7998H54.4C53.8099 28.7998 53.3333 29.2779 53.3333 29.8665V36.2665H48C47.4099 36.2665 46.9333 36.7446 46.9333 37.3331V44.7998H41.6C41.0099 44.7998 40.5333 45.2779 40.5333 45.8665V52.2665H35.2C34.6099 52.2665 34.1333 52.7446 34.1333 53.3331V61.8665H32V63.9998H64V61.8665H61.8667V29.8665ZM36.2667 54.3998H40.5333V61.8665H36.2667V54.3998ZM42.6667 53.3331V46.9331H46.9333V61.8665H42.6667V53.3331ZM49.0667 45.8665V38.3998H53.3333V61.8665H49.0667V45.8665ZM55.4667 61.8665V30.9331H59.7333V61.8665H55.4667Z" fill="#0166B3"/>
<path d="M24.5332 43.7329V45.8662C35.4749 45.8662 44.5087 37.5824 45.7181 26.9594L49.379 30.6204L50.8874 29.112L45.554 23.7787C45.1369 23.3615 44.4629 23.3615 44.0457 23.7787L38.7124 29.112L40.2207 30.6204L43.5051 27.336C42.1405 36.5959 34.165 43.7329 24.5332 43.7329Z" fill="#0166B3"/>
<path d="M52.2665 23.4667C58.7358 23.4667 63.9999 18.2026 63.9999 11.7333C63.9999 5.26406 58.7358 0 52.2665 0C45.7973 0 40.5332 5.26406 40.5332 11.7333C40.5332 18.2026 45.7973 23.4667 52.2665 23.4667ZM52.2665 2.13333C57.5603 2.13333 61.8665 6.44063 61.8665 11.7333C61.8665 17.026 57.5603 21.3333 52.2665 21.3333C46.9728 21.3333 42.6665 17.026 42.6665 11.7333C42.6665 6.44063 46.9728 2.13333 52.2665 2.13333Z" fill="#0166B3"/>
<path d="M52.2664 15.9999C51.6779 15.9999 51.1997 15.5208 51.1997 14.9333H49.0664C49.0664 16.3218 49.9612 17.4952 51.1997 17.9369V19.1999H53.3331V17.9369C54.5716 17.4952 55.4664 16.3218 55.4664 14.9333V13.8666C55.4664 12.1025 54.0305 10.6666 52.2664 10.6666C51.6779 10.6666 51.1997 10.1874 51.1997 9.59994V8.53327C51.1997 7.94577 51.6779 7.4666 52.2664 7.4666C52.8549 7.4666 53.3331 7.94577 53.3331 8.53327H55.4664C55.4664 7.14473 54.5716 5.97129 53.3331 5.52962V4.2666H51.1997V5.52962C49.9612 5.97129 49.0664 7.14473 49.0664 8.53327V9.59994C49.0664 11.364 50.5023 12.7999 52.2664 12.7999C52.8549 12.7999 53.3331 13.2791 53.3331 13.8666V14.9333C53.3331 15.5208 52.8549 15.9999 52.2664 15.9999Z" fill="#0166B3"/>
<path d="M11.7327 34.1337H13.866V24.5337H14.9327V22.4004H10.666V24.5337H11.7327V34.1337Z" fill="#0166B3"/>
<path d="M26.666 4.2666H28.7993V6.39994H26.666V4.2666Z" fill="#0166B3"/>
<path d="M30.9336 4.2666H33.0669V6.39994H30.9336V4.2666Z" fill="#0166B3"/>
<path d="M35.1992 4.2666H37.3326V6.39994H35.1992V4.2666Z" fill="#0166B3"/>
</g>
<defs>
<clipPath id="clip0_201_1625">
<rect width="64" height="64" fill="white"/>
</clipPath>
</defs>
</svg>
