<svg width="26" height="26" viewBox="0 0 26 26" fill="none" xmlns="http://www.w3.org/2000/svg">
<path d="M3.42422 4.84123C4.68095 3.58427 6.36655 2.84907 8.14278 2.78317C9.91901 2.71726 11.6545 3.32552 13.0009 4.4859C14.3461 3.32745 16.0793 2.71988 17.8534 2.7848C19.6275 2.84973 21.3116 3.58236 22.5685 4.83604C23.8255 6.08971 24.5625 7.77189 24.6321 9.54581C24.7017 11.3197 24.0986 13.0545 22.9437 14.4027L14.5316 22.8419C14.1452 23.2285 13.6268 23.4547 13.0805 23.4752C12.5343 23.4957 12.0004 23.309 11.5861 22.9524L11.4669 22.843L3.05589 14.4027C1.90158 13.0556 1.29826 11.3225 1.36655 9.54981C1.43484 7.77712 2.1697 6.09553 3.42422 4.84123ZM4.95605 6.37306C4.07015 7.25921 3.55948 8.45246 3.53003 9.70515C3.50057 10.9578 3.9546 12.1738 4.79789 13.1006L4.95605 13.2674L12.9998 21.3111L18.7447 15.5641L14.9151 11.7356L13.7668 12.8839C13.1574 13.4936 12.3308 13.8362 11.4687 13.8364C10.6067 13.8366 9.77991 13.4944 9.17022 12.885C8.56053 12.2756 8.2179 11.4489 8.21769 10.5869C8.21749 9.72488 8.55973 8.89808 9.16914 8.2884L11.4463 6.01015C10.5402 5.28668 9.4058 4.90988 8.24687 4.94741C7.08794 4.98494 5.98034 5.43432 5.12289 6.2149L4.95605 6.37306ZM14.1492 9.43673C14.3524 9.23364 14.6279 9.11954 14.9151 9.11954C15.2024 9.11954 15.4779 9.23364 15.6811 9.43673L20.2766 14.0322L21.0436 13.2674C21.9443 12.3673 22.4571 11.1505 22.4723 9.87717C22.4875 8.60387 22.0038 7.37516 21.1248 6.45383C20.2458 5.53249 19.0412 4.99167 17.7686 4.94702C16.496 4.90237 15.2564 5.35743 14.315 6.2149L14.1492 6.37306L10.7021 9.82023C10.5143 10.0079 10.4019 10.2579 10.3864 10.5229C10.3708 10.788 10.4531 11.0495 10.6176 11.2578L10.7021 11.3521C10.8897 11.5398 11.1398 11.6522 11.4048 11.6678C11.6698 11.6833 11.9313 11.6011 12.1396 11.4366L12.2339 11.3521L14.1492 9.43673Z" fill="black"/>
</svg>
